<?xml version="1.0" encoding="UTF-8"?>
<svg xmlns="http://www.w3.org/2000/svg" version="1.1" viewBox="0 0 383.76 70.08">
  <!-- Generator: Adobe Illustrator 30.0.0, SVG Export Plug-In . SVG Version: 2.1.1 Build 123)  -->
  <defs>
    <style>
      .st0 {
        fill: #252523;
      }
    </style>
  </defs>
  <g id="Layer_1">
    <g>
      <path class="st0" d="M32.79,0l.57.57.14,31.61c.02.53-.17,1.07-.7,1.24l-31.67.09L0,32.97v-14.46l1.14-.53,13.54.04c.24.07.54.17.63.43.44,1.3-.71,5.64.91,6.31.42.17,6.24.2,6.97.1.61-.08,1.07-.56,1.15-1.15.29-2.21-.16-5.22-.1-7.5-1-1.7-5.78.34-6.22-1.54l.09-14.11.57-.56h14.12Z"/>
      <path class="st0" d="M32.09,51.48h-12.69c-.76-.4-1.27-.78-1.39-1.69.29-3.79-.44-8.27-.02-11.97.16-1.38.91-1.77,2.2-1.86,2.89-.2,8.67-.31,11.47,0,1.1.13,1.76.72,1.86,1.84.34,3.75-.27,8.02,0,11.82-.11,1-.55,1.41-1.41,1.85h-.02Z"/>
      <path class="st0" d="M14.1,0c.57.44,1.24.62,1.24,1.49-.35,3.95.46,8.67,0,12.52-.13,1.09-.84,1.41-1.85,1.5-2.68.25-9.21.31-11.82,0-.91-.11-1.23-.52-1.67-1.24V0h14.1Z"/>
      <path class="st0" d="M14.1,51.48H0v-14.28c.44-.72.76-1.13,1.67-1.24,2.61-.31,9.15-.25,11.82,0,1.01.09,1.72.41,1.85,1.5.46,3.85-.35,8.58,0,12.52,0,.87-.67,1.06-1.24,1.49h0Z"/>
      <path class="st0" d="M50.07,51.48h-12.69c-.57-.44-1.24-.62-1.24-1.49.28-3.98-.36-8.43,0-12.35.09-1.04.65-1.55,1.68-1.67,3.78-.45,8.57.28,12.44.09.72.29,1.14.59,1.23,1.41.45,3.91-.34,8.68,0,12.69-.14.89-.75.94-1.4,1.33h-.02Z"/>
      <path class="st0" d="M50.07,0c.77.43,1.3.47,1.41,1.49-.28,3.98.36,8.43,0,12.35-.09,1.04-.65,1.55-1.68,1.67-3.78.45-8.57-.28-12.44-.09-.72-.29-1.14-.59-1.23-1.41-.45-3.91.34-8.68,0-12.69.13-.82.68-.89,1.22-1.33h12.72Z"/>
      <path class="st0" d="M37.5,18.02c3.85.27,8.55-.5,12.3-.04.8.1,1.65.61,1.67,1.5-.28,3.98.36,8.43,0,12.35-.09,1.02-.63,1.54-1.68,1.67-3.77.45-8.57-.28-12.44-.09-.87-.35-1.15-.66-1.24-1.58-.36-3.92.29-8.37,0-12.35.02-.82.67-1.22,1.37-1.45h.02Z"/>
    </g>
    <g>
      <path class="st0" d="M362.68,49.21h-4.87v-9.61c0-.09-.51-1.54-.57-1.61-.54-.57-2.3-.41-2.88.21-.23.24-.91,1.92-.91,2.16v8.84h-4.61v-9.35c0-.1-.49-1.78-.57-1.86-1.23-1.28-3.78.4-3.78,2.12v9.1h-4.87v-15.12h4.61v1.54c2.41-2.71,6.8-2.98,8.84.25,1.58-2.45,5.71-3.18,7.95-1.28,2.71,2.31,1.29,11.2,1.66,14.61Z"/>
      <path class="st0" d="M270.63,28.78c3.85-.44,7.56.63,10.3,3.39l-2.99,2.66c-.59.15-1.88-1.15-2.58-1.45-1.76-.76-6.82-1.23-5.91,1.8.46,1.54,6.75,2.07,8.58,2.95,1.41.68,2.91,2.18,3.13,3.79,1.34,9.67-13.14,9.63-17.9,4.31l2.97-3.16c2.24,1.88,5.04,3.2,8.04,2.42,1.45-.38,2.53-2.06,1.11-3.18-2.56-2.01-9.61-.84-10.94-5.46-1.35-4.66,1.83-7.59,6.18-8.08h.01Z"/>
      <path class="st0" d="M85.67,6.16l-4.7,1c-1.45-2.22-2.57-3.22-5.41-2.77-4.91.77-5.04,11.9.23,12.55,3.08.38,4.27-.78,5.67-3.3l4.46,1.25c-1.96,7.4-13.78,8.54-17.63,2.12-2.06-3.42-2.24-9.55.1-12.88,4.18-5.94,15.02-5.25,17.28,2.03Z"/>
      <path class="st0" d="M286.31,34.09l2.44,11.28,2.43-11.28h5.38c-1.73,5.06-2.8,10.53-4.54,15.57-1.6,4.62-3.9,5.63-8.78,4.93v-3.33c1.94,0,4.21.56,4.35-2.05l-1.63-.04-5.03-15.08s5.38,0,5.38,0Z"/>
      <path class="st0" d="M238.85,4.95c4.16-.36,8.25,1.89,9,6.23,1.09,6.32-3.06,10.4-9.32,9.84-9.26-.83-9.8-15.19.33-16.06h0ZM238.84,8.78c-3.4.7-3.22,8.98,1.16,8.6,4.16-.36,4.29-9.72-1.16-8.6Z"/>
      <path class="st0" d="M94.07,4.95c12.29-1.05,12.55,17.82-.78,16-8.89-1.22-9.06-15.16.78-16ZM92.67,9.57c-1.41,1.59-1.27,6.5.95,7.48,5.63,2.49,6.63-9.68.44-8.27-.26.06-1.22.6-1.38.79,0,0-.01,0-.01,0Z"/>
      <path class="st0" d="M191.25,20.77h-4.87v-10.12c0-2.56-4.87-1.96-4.87,1.03v9.1h-4.48l-.38-.38V5.39h4.61v1.79c2.1-2.19,5.43-3.23,8.07-1.28.83.61,1.92,2.48,1.92,3.46v11.4h0Z"/>
      <path class="st0" d="M259.66,20.77v-9.87c0-.23-.63-1.45-.92-1.64-1.57-1.01-3.95.57-3.95,2.15v9.35h-4.87V5.39h4.61v1.79c2.06-2.51,6.93-3.42,8.93-.34.33.51,1.07,2.53,1.07,3.03v10.51l-.38.38h-4.49Z"/>
      <path class="st0" d="M119.75,20.77h-4.87v-10.12c0-1.19-1.59-1.85-2.67-1.66-.88.15-2.19,1.59-2.19,2.43v9.35h-4.48l-.38-.38V5.39h4.61v1.79c2.13-2.44,6.67-3.41,8.82-.5.38.52,1.17,2.36,1.17,2.93v11.15h0Z"/>
      <path class="st0" d="M214.05,14.1c.11,3.71,4.82,4.62,6.55,1.52,1.12.49,2.3.9,3.37,1.5.23.13.43-.1.3.4-.28,1.03-2.17,2.36-3.12,2.78-4.83,2.11-11.13.02-11.9-5.62-1.77-12.93,16.41-13.04,15.31-.57h-10.51ZM219.69,11.28c-.07-3.99-5.5-4.06-5.64,0h5.64Z"/>
      <path class="st0" d="M337.82,42.8h-10.51c.1,1.54.82,2.75,2.35,3.16,2.84.75,3.58-1.59,4.43-1.61.36,0,3.55,1.45,3.46,1.9-.07.32-2.09,2.06-2.54,2.33-4.63,2.73-11.67.53-12.5-5.2-1.89-13.05,16.47-13.14,15.31-.57h0ZM332.95,39.98c0-4.16-5.64-4.15-5.64,0h5.64Z"/>
      <path class="st0" d="M174.85,14.1h-10.51c.06,3.77,4.65,4.56,6.56,1.56,1.06.56,2.33.88,3.37,1.46.23.13.43-.08.29.41-.46,1.74-3.85,3.28-5.51,3.47-4.73.56-9.12-1.66-9.59-6.75-1.19-12.73,16.39-12.23,15.39-.14h0ZM169.98,11.28c-.11-4.02-5.6-3.98-5.64,0h5.64Z"/>
      <path class="st0" d="M147.17,14.1h-10.51c-.04,3.84,4.64,4.48,6.56,1.56,1.03.55,2.39.91,3.37,1.46.19.11.47-.05.3.41-.64,1.78-3.73,3.25-5.51,3.46-4.73.56-9.12-1.66-9.59-6.75-1.19-12.73,16.39-12.23,15.39-.14h-.01ZM142.3,11.28c-.11-4.02-5.6-3.98-5.64,0h5.64Z"/>
      <path class="st0" d="M310.4,35.63l-2.43,2.75c-1.12-.69-2.23-1.4-3.6-1.48-1.07-.06-3.25.24-2.3,1.8.78,1.28,7.93.67,8.57,4.75,1.19,7.57-10.6,7.55-14.48,3.7l2.07-2.82c1.37,1.35,5.73,2.73,7.16,1.28,1.97-1.99-4.36-2.59-5.42-3.02-4.37-1.74-4.15-6.78.11-8.45,3.36-1.32,7.4-.49,10.32,1.48h0Z"/>
      <path class="st0" d="M378.31,35.63l-2.43,2.75c-1.19-.75-2.38-1.47-3.85-1.5-1.77-.03-3.57,1.19-1.41,2.2,2.61,1.22,7.37.6,7.92,4.63,1.01,7.32-10.78,7.23-14.47,3.44l2.06-2.81c1.94,1.5,5.62,2.92,7.43.8,0-.36,0-.83-.3-1.08-.8-.67-3.93-.91-5.2-1.39-4.5-1.7-4.45-6.8-.07-8.52,3.36-1.32,7.4-.49,10.32,1.48Z"/>
      <path class="st0" d="M204.08,10.76c-1.04-3.07-5.14-2.63-5.8.51-1.06,5.02,2.8,8.68,6.2,3.88l3.93,1.26c-3.85,8.19-16.4,5.16-15.35-4.46.88-7.98,11.68-9.67,15.09-2.86l-4.08,1.67h.01Z"/>
      <path class="st0" d="M121.03,5.65h2.05c-.66-3.68,1.74-5.68,5.24-5.65.43,0,3.26.48,3.48.64.55.41.12,2.7.25,3.46-1.84-.57-4.74-1.37-4.35,1.54l3.73.24v3.11l-3.73.24v11.53h-4.61v-11.53h-2.05v-3.59h-.01Z"/>
      <path class="st0" d="M317.83,30.5v3.84h3.59v3.33h-3.59v6.53c0,.16.52,1.37.83,1.49,1.06.44,1.96-.06,3.02-.09v3.59c-2.27.61-5.89,1.01-7.57-1.02-.24-.29-.89-1.41-.89-1.67v-8.84l-2.05-.15v-3.19h2.05v-3.84h4.61v.02h0Z"/>
      <path class="st0" d="M158.96,9.49c-1.81-.09-3.64.27-4.5,2.03-.16.32-.62,1.7-.62,1.94v7.3h-4.48l-.38-.38V5.39h4.61l.13,2.05c1.15-1.53,3.29-3.41,5.25-2.18v4.23h-.01Z"/>
    </g>
  </g>
  <g id="Layer_2">
    <path class="st0" d="M65.5,49.21l6.52-20.01,6,.05,6.44,19.95h-5.38l-.74-2.67-7.18-.13-.92,2.79h-4.74v.02ZM77.03,42.29l-2.18-8.97-2.43,8.97h4.61,0Z"/>
    <rect class="st0" x="85.75" y="29.22" width="4.87" height="19.99"/>
    <path class="st0" d="M189.58,32.3v3.84l-2.05.26c2.32,4.8-1.79,7.51-6.28,7.45-1.53-.02-3.63-1.43-3.16.97,3.05.67,9.48-.49,10.74,3.48,2.2,6.92-8.7,7.36-12.9,5.72-3.22-1.26-3.21-4.42-.45-6.22-2.17-1.71-1.46-3.9.51-5.38-.89-.87-1.76-1.57-1.98-2.88-.82-4.89,4.35-6.36,8.26-5.96.7.07,2.51.77,2.79.72.14-.03,1.54-1.26,2.29-1.54.68-.25,1.51-.36,2.23-.46ZM183.1,37.24c-.86-1.07-4.18-1-4.29,1.08-.22,4.05,6.7,1.92,4.29-1.08ZM183.88,50.94c2.2-2.45-4.29-2.49-5.59-2.13-.8.22-.98,1.43-.51,2.08.69.96,5.36.87,6.1.04h0Z"/>
    <path class="st0" d="M173.7,49.21h-5.38l-.93-2.79-6.87-.05-.66,2.83h-5.13l6.31-20,6.38.27,6.27,19.74h.01ZM166.52,42.29l-2.43-8.97-2.43,8.97h4.87-.01Z"/>
    <path class="st0" d="M205.21,42.8h-10.51c.39,2.59,2.4,3.97,4.92,3,.96-.37,1.14-1,1.87-1.48l3.72,1.69c-3.71,5.49-13.18,4.96-14.99-1.92-3.44-13.09,16.43-14.57,14.99-1.28h0ZM200.35,39.98c.17-2.29-1.59-3.6-3.78-2.88-1.11.36-2.21,1.88-1.48,2.88h5.26Z"/>
    <path class="st0" d="M221.61,49.21h-4.61v-9.1c0-.13-.43-1.57-.54-1.77-.61-1.1-2.79-.86-3.56-.03-.13.14-.76,1.21-.76,1.29v9.61h-4.87v-15.12h4.61l.25,1.79c1.27-2.83,6.17-3.06,8.21-.91.35.36,1.27,1.94,1.27,2.32,0,0,0,11.92,0,11.92Z"/>
    <path class="st0" d="M257.23,37.93l-3.98,1.51c-3.24-4.98-7.37-.67-5.9,4.15.97,3.18,5.04,3.11,5.92-.02l4.22,1.55c-4.61,8.25-16.7,4.98-15.31-5.19,1.03-7.54,12.28-8.77,15.05-1.99h0Z"/>
    <path class="st0" d="M229.81,30.5v3.84h3.59v3.33h-3.59v7.3c0,1.06,3.13.92,3.84.64v3.59c-2.57.62-6.97,1.1-8.25-1.87-.08-.19-.46-1.5-.46-1.59v-8.07l-2.05-.15v-3.19h2.05v-3.84h4.87Z"/>
    <rect class="st0" x="235.2" y="34.09" width="4.87" height="15.12"/>
    <path class="st0" d="M237.18,26.71c2.66-.5,4.5,3.22,1.95,4.78-3.77,2.3-6.17-3.99-1.95-4.78Z"/>
    <path class="st0" d="M147.06,29.22v19.99h-4.61v-1.28c-7.23,5.49-13.21-2.8-10.37-9.99,1.67-4.23,6.39-5.78,10.12-3.08v-5.64h4.87,0ZM139.32,37.22c-3.88.34-3.57,7.75-.99,8.54,5.66,1.75,5.51-8.94.99-8.54Z"/>
    <path class="st0" d="M112.98,49.21h-4.87l-.38-1.28c-3.82,3.65-10.54,1.56-9.3-4.43.73-3.52,6.29-3.96,9.17-4.03.03-.68.12-2.25-.68-2.52-1.06-.36-3.6-.14-3.16,1.49h-4.87c-.32-5.46,9.27-6.03,12.17-3.59s.29,10.93,1.92,14.35h0ZM107.6,42.29c-1.66-.23-5.83.81-4.12,3.22,1.45,2.05,5.13-.92,4.12-3.22Z"/>
    <path class="st0" d="M129.64,49.21h-4.87v-9.61c0-2.04-2.74-2.59-4.01-1.32-.18.18-.86,1.43-.86,1.58v9.35h-4.87v-15.12h4.61c-.16,2.98.57.83,1.82.15,2.35-1.27,5.75-1.01,7.2,1.46.34.58.97,2.54.97,3.13v10.38h0Z"/>
  </g>
</svg>