<?xml version="1.0" encoding="UTF-8"?>
<svg xmlns="http://www.w3.org/2000/svg" version="1.1" viewBox="0 0 2500 2500">
  <!-- Generator: Adobe Illustrator 29.8.1, SVG Export Plug-In . SVG Version: 2.1.1 Build 2)  -->
  <defs>
    <style>
      .st0 {
        font-family: NeueHaasUnicaW1G-Heavy, 'Neue Haas Unica W1G';
        font-size: 400px;
        font-weight: 800;
      }

      .st0, .st1, .st2 {
        fill: #414042;
      }

      .st1 {
        font-family: RealHeadPro-Bold, 'Real Head Pro';
        font-size: 135.26px;
        font-weight: 700;
      }

      .st3 {
        display: none;
      }
    </style>
  </defs>
  <g id="Layer_1" class="st3">
    <g>
      <rect class="st2" x="758.62" y="1005.43" width="99.18" height="99.18" rx="2.34" ry="2.34"/>
      <rect class="st2" x="526.6" y="1005.43" width="99.18" height="99.18" rx="2.34" ry="2.34"/>
      <rect class="st2" x="758.62" y="1120.99" width="99.18" height="99.18" rx="2.34" ry="2.34"/>
      <rect class="st2" x="758.62" y="1236.56" width="99.18" height="99.18" rx="2.34" ry="2.34"/>
      <rect class="st2" x="642.61" y="1236.56" width="99.18" height="99.18" rx="2.34" ry="2.34"/>
      <rect class="st2" x="526.6" y="1236.56" width="99.18" height="99.18" rx="2.34" ry="2.34"/>
      <path class="st2" d="M736.04,1005.43h-87.67c-3.18,0-5.76,2.58-5.76,5.76v87.67c0,3.18,2.58,5.76,5.76,5.76h25.54c5.34,0,9.67,4.33,9.67,9.67v41.33c0,5.34-4.33,9.67-9.67,9.67h-38.45c-5.34,0-9.67-4.33-9.67-9.67v-28.86c0-3.18-2.58-5.76-5.76-5.76h-87.67c-3.18,0-5.76,2.58-5.76,5.76v87.67c0,3.18,2.58,5.76,5.76,5.76h203.68c3.18,0,5.76-2.58,5.76-5.76v-87.67c0-.62-.12-1.21-.31-1.77h.31v-113.79c0-3.18-2.58-5.76-5.76-5.76Z"/>
    </g>
    <text class="st1" transform="translate(503.99 1522.58)"><tspan x="0" y="0">Conference on </tspan><tspan x="0" y="135.26">Agentic and AI Systems</tspan></text>
    <text class="st0" transform="translate(947.3 1306.08)"><tspan x="0" y="0">CAIS</tspan></text>
  </g>
  <g id="Layer_1_copy">
    <g>
      <rect class="st2" x="758.62" y="1005.43" width="99.18" height="99.18" rx="2.34" ry="2.34"/>
      <rect class="st2" x="526.6" y="1005.43" width="99.18" height="99.18" rx="2.34" ry="2.34"/>
      <rect class="st2" x="758.62" y="1120.99" width="99.18" height="99.18" rx="2.34" ry="2.34"/>
      <rect class="st2" x="758.62" y="1236.56" width="99.18" height="99.18" rx="2.34" ry="2.34"/>
      <rect class="st2" x="642.61" y="1236.56" width="99.18" height="99.18" rx="2.34" ry="2.34"/>
      <rect class="st2" x="526.6" y="1236.56" width="99.18" height="99.18" rx="2.34" ry="2.34"/>
      <path class="st2" d="M736.04,1005.43h-87.67c-3.18,0-5.76,2.58-5.76,5.76v87.67c0,3.18,2.58,5.76,5.76,5.76h25.54c5.34,0,9.67,4.33,9.67,9.67v41.33c0,5.34-4.33,9.67-9.67,9.67h-38.45c-5.34,0-9.67-4.33-9.67-9.67v-28.86c0-3.18-2.58-5.76-5.76-5.76h-87.67c-3.18,0-5.76,2.58-5.76,5.76v87.67c0,3.18,2.58,5.76,5.76,5.76h203.68c3.18,0,5.76-2.58,5.76-5.76v-87.67c0-.62-.12-1.21-.31-1.77h.31v-113.79c0-3.18-2.58-5.76-5.76-5.76Z"/>
    </g>
    <g>
      <path class="st2" d="M1192.97,1161.17h-68.27c-3.05-29.37-21.36-46.53-49.96-46.53-35.85,0-57.97,32.04-57.97,84.67s22.12,84.67,57.21,84.67c28.6,0,47.29-17.54,51.11-48.05h69.03c-5.34,67.5-51.11,105.26-120.13,105.26-78.18,0-126.24-53.77-126.24-141.87s48.44-141.87,127-141.87c70.17,0,115.56,40.43,118.23,103.73Z"/>
      <path class="st2" d="M1285.27,1277.49l-17.54,57.59h-69.41l92.68-271.54h86.57l92.68,271.54h-69.41l-17.16-57.59h-98.4ZM1361.93,1205.03c-9.92-32.42-19.45-65.98-27.46-98.78h-.76c-8.01,32.8-17.16,66.36-26.7,98.78l-5.34,18.31h65.98l-5.72-18.31Z"/>
      <path class="st2" d="M1491.98,1335.08v-271.54h65.98v271.54h-65.98Z"/>
      <path class="st2" d="M1813.49,1146.3h-68.65c0-24.03-14.11-37.76-40.43-37.76-21.74,0-35.85,10.3-35.85,25.55,0,17.92,14.49,23.65,54.16,33.56,52.25,12.97,98.01,27.08,98.01,86.57,0,53.01-43.48,86.95-110.98,86.95s-113.65-33.94-113.65-94.58h70.17c0,27.84,14.87,41.95,45,41.95,24.79,0,40.04-11.06,40.04-28.6,0-20.59-15.64-24.79-51.87-34.32-51.87-13.35-98.78-26.7-98.78-85.43,0-49.58,41.19-82.76,106.41-82.76s106.41,30.51,106.41,88.86Z"/>
    </g>
  </g>
</svg>