<?xml version="1.0" encoding="UTF-8"?>
<svg xmlns="http://www.w3.org/2000/svg" version="1.1" viewBox="0 0 306.64 306">
  <!-- Generator: Adobe Illustrator 29.8.1, SVG Export Plug-In . SVG Version: 2.1.1 Build 2)  -->
  <defs>
    <style>
      .st0 {
        fill: #e6e7e8;
      }

      .st1 {
        fill: #6d6e71;
      }

      .st2 {
        display: none;
      }
    </style>
  </defs>
  <g id="Layer_11" class="st2">
    <g>
      <path class="st0" d="M165.58,189.99h-22.31c-1.3,0-2.54.52-3.46,1.43l-2.5,2.5c-7.43,7.43-11.61,17.51-11.61,28.02v21.76c0,.84.68,1.52,1.52,1.52h52.19c.84,0,1.52-.68,1.52-1.52v-25.69c0-10.51-4.17-20.59-11.61-28.02h-3.75Z"/>
      <path class="st0" d="M139.81,114.58c.92.92,2.16,1.43,3.46,1.43h26.06c7.43-7.43,11.61-17.51,11.61-28.02v-25.69c0-.84-.68-1.52-1.52-1.52h-52.19c-.84,0-1.52.68-1.52,1.52v21.76c0,10.51,4.17,20.59,11.61,28.02l2.5,2.5Z"/>
      <path class="st0" d="M244.02,125.38h-21.76c-10.51,0-20.59,4.17-28.02,11.61l-2.63,2.63c-.83.83-1.3,1.97-1.3,3.15v20.47c0,1.18.47,2.31,1.3,3.15l2.63,2.63c7.43,7.43,17.51,11.61,28.02,11.61h21.76c.84,0,1.52-.68,1.52-1.52v-52.19c0-.84-.68-1.52-1.52-1.52Z"/>
      <path class="st0" d="M62.62,180.62h25.69c10.51,0,20.24-3.57,27.67-11l.34-.62v-4.08s.02-.09.02-.14v-23.55s0-.09,0-.14v-4.08s-.35-.62-.35-.62c-7.43-7.43-17.16-11-27.67-11h-25.69c-.84,0-1.52.68-1.52,1.52v52.19c0,.84.68,1.52,1.52,1.52Z"/>
      <path class="st1" d="M244.02,60.78h-52.19c-.84,0-1.52.68-1.52,1.52v28.71c0,10.51-4.17,20.59-11.61,28.02l-4.94,4.94c-.11.11-.24.19-.35.29-1.83.73-3.8,1.12-5.81,1.12h-24.33c-2.16,0-4.28-.43-6.24-1.23-.07-.06-.15-.11-.22-.18l-8.87-8.87c-7.43-7.43-11.61-17.51-11.61-28.02v-24.78c0-.84-.68-1.52-1.52-1.52h-52.19c-.84,0-1.52.68-1.52,1.52v52.19c0,.84.68,1.52,1.52,1.52h28.71c10.51,0,20.59,4.17,28.02,11.61l5,5c.87.87,1.35,2.04,1.35,3.27v34.23c0,1.23-.49,2.4-1.35,3.27l-5,5c-7.43,7.43-17.51,11.61-28.02,11.61h-28.71c-.84,0-1.52.68-1.52,1.52v52.19c0,.84.68,1.52,1.52,1.52h52.19c.84,0,1.52-.68,1.52-1.52v-24.78c0-10.51,4.17-20.59,11.61-28.02l8.87-8.87c.07-.07.15-.12.22-.18,1.96-.81,4.08-1.23,6.24-1.23h24.33c2.01,0,3.98.39,5.81,1.12.12.1.24.18.35.29l4.94,4.94c7.43,7.43,11.61,17.51,11.61,28.02v28.71c0,.84.68,1.52,1.52,1.52h52.19c.84,0,1.52-.68,1.52-1.52v-52.19c0-.84-.68-1.52-1.52-1.52h-24.78c-10.51,0-20.59-4.17-28.02-11.61l-8.98-8.98c-.83-.83-1.3-1.97-1.3-3.15h0v-26.51h0c0-1.18.47-2.31,1.3-3.15l8.98-8.98c7.43-7.43,17.51-11.61,28.02-11.61h24.78c.84,0,1.52-.68,1.52-1.52v-52.19c0-.84-.68-1.52-1.52-1.52Z"/>
    </g>
  </g>
  <g id="Layer_1" class="st2">
    <g>
      <path class="st1" d="M243.46,61.02h-51.06c-1.15,0-2.09.93-2.09,2.09v51.06c0,1.15.93,2.09,2.09,2.09h51.06c1.15,0,2.09-.93,2.09-2.09v-51.06c0-1.15-.93-2.09-2.09-2.09Z"/>
      <path class="st0" d="M243.46,125.38h-51.06c-1.15,0-2.09.93-2.09,2.09v51.06c0,1.15.93,2.09,2.09,2.09h51.06c1.15,0,2.09-.93,2.09-2.09v-51.06c0-1.15-.93-2.09-2.09-2.09Z"/>
      <path class="st0" d="M178.85,61.02h-51.06c-1.15,0-2.09.93-2.09,2.09v51.06c0,1.15.93,2.09,2.09,2.09h51.06c1.15,0,2.09-.93,2.09-2.09v-51.06c0-1.15-.93-2.09-2.09-2.09Z"/>
      <path class="st1" d="M114.25,61.02h-51.06c-1.15,0-2.09.93-2.09,2.09v51.06c0,1.15.93,2.09,2.09,2.09h51.06c1.15,0,2.09-.93,2.09-2.09v-51.06c0-1.15-.93-2.09-2.09-2.09Z"/>
      <path class="st0" d="M114.25,125.38h-51.06c-1.15,0-2.09.93-2.09,2.09v51.06c0,1.15.93,2.09,2.09,2.09h51.06c1.15,0,2.09-.93,2.09-2.09v-51.06c0-1.15-.93-2.09-2.09-2.09Z"/>
      <path class="st0" d="M178.85,189.74h-51.06c-1.15,0-2.09.93-2.09,2.09v51.06c0,1.15.93,2.09,2.09,2.09h51.06c1.15,0,2.09-.93,2.09-2.09v-51.06c0-1.15-.93-2.09-2.09-2.09Z"/>
      <path class="st1" d="M243.46,189.74h-36.73c-6.59,0-12.9-2.62-17.56-7.27l-.96-.96c-4.66-4.66-7.27-10.97-7.27-17.56v-36.48c0-1.15-.93-2.09-2.09-2.09h-51.06c-1.15,0-2.09.93-2.09,2.09v37.44c0,6.59-2.62,12.9-7.27,17.56h0c-4.66,4.66-10.97,7.27-17.56,7.27h-37.69c-1.15,0-2.09.93-2.09,2.09v51.06c0,1.15.93,2.09,2.09,2.09h51.06c1.15,0,2.09-.93,2.09-2.09v-34.79c0-6.59,2.62-12.9,7.27-17.56l2.65-2.65c4.66-4.66,10.97-7.27,17.56-7.27h19.96c6.59,0,12.9,2.62,17.56,7.27l1.7,1.7c4.66,4.66,7.27,10.97,7.27,17.56v35.74c0,1.15.93,2.09,2.09,2.09h51.06c1.15,0,2.09-.93,2.09-2.09v-51.06c0-1.15-.93-2.09-2.09-2.09Z"/>
    </g>
  </g>
  <g id="Layer_3" class="st2">
    <g>
      <path class="st0" d="M243.46,61.02h-51.06c-1.15,0-2.09.93-2.09,2.09v51.06c0,1.15.93,2.09,2.09,2.09h51.06c1.15,0,2.09-.93,2.09-2.09v-51.06c0-1.15-.93-2.09-2.09-2.09Z"/>
      <path class="st0" d="M243.46,125.38h-51.06c-1.15,0-2.09.93-2.09,2.09v51.06c0,1.15.93,2.09,2.09,2.09h51.06c1.15,0,2.09-.93,2.09-2.09v-51.06c0-1.15-.93-2.09-2.09-2.09Z"/>
      <path class="st0" d="M178.85,61.02h-51.06c-1.15,0-2.09.93-2.09,2.09v51.06c0,1.15.93,2.09,2.09,2.09h51.06c1.15,0,2.09-.93,2.09-2.09v-51.06c0-1.15-.93-2.09-2.09-2.09Z"/>
      <path class="st0" d="M114.25,125.38h-51.06c-1.15,0-2.09.93-2.09,2.09v51.06c0,1.15.93,2.09,2.09,2.09h51.06c1.15,0,2.09-.93,2.09-2.09v-51.06c0-1.15-.93-2.09-2.09-2.09Z"/>
      <path class="st0" d="M178.85,189.74h-51.06c-1.15,0-2.09.93-2.09,2.09v51.06c0,1.15.93,2.09,2.09,2.09h51.06c1.15,0,2.09-.93,2.09-2.09v-51.06c0-1.15-.93-2.09-2.09-2.09Z"/>
      <path class="st1" d="M243.46,189.74h-36.05c-7.02,0-13.75-2.79-18.71-7.75h0c-4.96-4.96-7.75-11.69-7.75-18.71v-35.81c0-1.15-.93-2.09-2.09-2.09h-35.81c-7.02,0-13.75-2.79-18.71-7.75l-.25-.25c-4.96-4.96-7.75-11.69-7.75-18.71v-35.56c0-1.15-.93-2.09-2.09-2.09h-51.06c-1.15,0-2.09.93-2.09,2.09v51.06c0,1.15.93,2.09,2.09,2.09h35.56c7.02,0,13.75,2.79,18.71,7.75l.49.49c4.96,4.96,7.75,11.69,7.75,18.71v35.31c0,1.15.93,2.09,2.09,2.09h35.31c7.02,0,13.75,2.79,18.71,7.75l.74.74c4.96,4.96,7.75,11.69,7.75,18.71v35.07c0,1.15.93,2.09,2.09,2.09h51.06c1.15,0,2.09-.93,2.09-2.09v-51.06c0-1.15-.93-2.09-2.09-2.09Z"/>
      <path class="st0" d="M114.25,189.74h-51.06c-1.15,0-2.09.93-2.09,2.09v51.06c0,1.15.93,2.09,2.09,2.09h51.06c1.15,0,2.09-.93,2.09-2.09v-51.06c0-1.15-.93-2.09-2.09-2.09Z"/>
    </g>
  </g>
  <g id="Layer_4">
    <g>
      <path class="st0" d="M192.39,116.25h51.06c1.15,0,2.09-.93,2.09-2.09v-51.06c0-1.15-.93-2.09-2.09-2.09h-51.06c-1.15,0-2.09.93-2.09,2.09v51.06c0,1.15.93,2.09,2.09,2.09Z"/>
      <path class="st1" d="M245.54,153.59c0-1.81,0-5.76,0-7.53,0,0,0-18.16,0-18.17,0-1.39-1.13-2.52-2.52-2.52-11.52,0-23.41,0-35.04,0-20.87.02-42.23-.02-63.01,0-.07,0-.14,0-.21,0s-.14,0-.21,0c-10.43.11-18.85,8.6-18.85,19.06,0,.44.02.87.05,1.3h-.05v1.12c-.14,4.47-.78,8.49-3.91,10.65-2.22.77-3.63-1.94-4.28-3.77-1.45-4.13-.95-8.67-.17-13.4.42-2.72,1.23-5.31,2.36-7.72,2.69-5.7,7.24-10.33,12.98-13.01,1.83-.86,3.79-1.52,5.84-1.95,8.02-1.83,16.31-1.3,24.47-1.4,0,0,15.43,0,15.43,0,1.39,0,2.52-1.13,2.52-2.52v-10.57c.08-3.6-.04-8.76,0-12.43,0,0,0,0,0-.01,0,0,0,0,0-.01-.05-4.99.12-11.42,0-16.28v-10.89c0-1.39-1.13-2.52-2.52-2.52h-17.98s0,0,0,0c-7.53,0-24.47,0-32.21,0-1.39,0-2.52,1.13-2.52,2.52-.01,8.05.06,20.97-.08,28.68.03,2.25-.11,4.39-.37,6.44-1.98,15.04-11.8,24.35-26.69,26.32-2.21.29-4.52.43-6.94.4-4.09.03-10.86-.06-14.84,0h-13.16c-1.39,0-2.52,1.13-2.52,2.52,0,1.73,0,17.5,0,18.77.02,4.96-.04,10.2,0,15.15v16.28c0,1.39,1.13,2.52,2.52,2.52h12.74c5.88.13,13.57-.05,19.53,0,0,0,.01,0,.02,0,21.7,0,43.42,0,65.14,0,.22,0,.45,0,.68.01.05,0,.1,0,.15,0,0,0,.01,0,.02,0,10.52,0,19.05-8.54,19.05-19.07,0-.11,0-.23,0-.34h.03c.03-1.65.09-3.17.19-4.44.19-3.07,1.98-8.45,4.67-8.08,4.3,1.32,4.54,9.13,4.02,13.56-.78,11.17-7.18,21.57-18.11,25.12-7.03,2.37-14.68,2.4-22.05,2.36-4.86-.04-16.44.02-21.45,0-1.39,0-2.52,1.13-2.52,2.52-.04,14.59.01,35.44,0,50.2,0,1.39,1.13,2.52,2.52,2.52,0,0,18.51,0,18.52,0h0c1.56,0,6.75,0,8.39,0,3.41.06,6.82.13,10.21,0h13.07c1.39,0,2.52-1.13,2.52-2.52v-13.02c.09-4.22-.04-9.98,0-14.31.13-6.76.88-13.39,4.01-19.03,5.69-10.78,16.8-15.45,28.99-15.39,7.92-.16,21-.06,29.09-.09,1.39,0,2.52-1.13,2.52-2.52-.05-6.15.07-18.51,0-24.51Z"/>
      <path class="st0" d="M243.45,189.73h-34.08c-10.53,0-19.07,8.54-19.07,19.07,0,.26,0,.51.02.76,0,.21.02.42.04.63,0,0,0,0,0,0h-.06v32.68c0,1.15.93,2.09,2.09,2.09h51.06c1.15,0,2.09-.93,2.09-2.09v-51.06c0-1.15-.93-2.09-2.09-2.09Z"/>
      <path class="st0" d="M114.24,189.73h-51.06c-1.15,0-2.09.93-2.09,2.09v51.06c0,1.15.93,2.09,2.09,2.09h51.06c1.15,0,2.09-.93,2.09-2.09v-51.06c0-1.15-.93-2.09-2.09-2.09Z"/>
      <path class="st0" d="M61.17,114.84c.08.2.19.38.32.55.05.07.11.14.17.2.37.37.89.6,1.46.6h36.3c8.79-.95,15.78-7.88,16.85-16.63v-36.51c0-.56-.22-1.07-.58-1.44-.38-.4-.91-.64-1.5-.64h-30.68c-.49.02-1.01.04-1.54.06h-18.78c-1.15,0-2.09.93-2.09,2.09v51.06c0,.19.03.36.08.53v.14Z"/>
    </g>
  </g>
</svg>